<svg version="1.1" id="Layer_1" xmlns="http://www.w3.org/2000/svg" xmlns:xlink="http://www.w3.org/1999/xlink" x="0px" y="0px"
	 width="100%" viewBox="0 0 1024 1024" enable-background="new 0 0 1024 1024" xml:space="preserve">
<path fill="#000000" opacity="1.000000" stroke="none" 
	d="
M322.801392,668.942200 
	C312.190887,674.246704 301.914337,679.384399 291.625458,684.497375 
	C289.090393,685.757141 286.511963,686.951660 283.659149,687.295410 
	C271.820282,688.721985 263.553925,679.758179 265.897003,667.575012 
	C271.509583,638.391663 277.350281,609.252136 283.108124,580.096741 
	C284.233246,574.399719 285.393829,568.709534 286.550140,563.018677 
	C287.197693,559.831787 286.330322,557.313904 283.983002,554.907410 
	C262.584564,532.969849 245.159683,508.378693 234.574158,479.382874 
	C229.141922,464.502960 225.979507,449.152283 224.527328,433.302979 
	C220.770172,392.296173 230.108429,354.396851 250.375916,318.916962 
	C252.299286,315.549927 252.019318,312.053955 251.515869,308.706085 
	C245.997543,272.008636 246.153793,235.057297 246.828217,198.126846 
	C247.072876,184.729141 248.169342,171.233963 251.706192,158.147186 
	C253.723022,150.684631 256.754211,143.677780 261.660309,137.618179 
	C268.262085,129.464203 276.556244,126.965157 286.548370,130.374344 
	C298.630737,134.496674 309.363525,141.287552 320.047333,148.068207 
	C349.029510,166.462204 376.947205,186.424805 404.973145,206.218979 
	C407.806946,208.220444 410.057312,208.361649 413.183960,207.304810 
	C433.398438,200.472122 454.159180,196.141037 475.347565,193.539352 
	C492.095367,191.482895 508.902466,191.067856 525.651062,191.892883 
	C552.465454,193.213730 578.745911,198.109619 604.130615,207.078751 
	C607.863770,208.397797 610.531616,207.999786 613.729797,205.799942 
	C638.160645,188.995163 662.607239,172.209259 687.258423,155.730789 
	C700.135559,147.122910 713.630432,139.533401 727.552673,132.650574 
	C746.000366,123.530502 757.307983,132.094070 764.263977,146.307068 
	C769.954773,157.934967 772.096619,170.636795 773.277039,183.411896 
	C775.488403,207.344025 774.478699,231.360550 774.168457,255.322784 
	C773.921753,274.379272 771.824951,293.395538 769.086609,312.280914 
	C768.616211,315.524963 769.822021,317.725708 771.252563,320.121155 
	C782.707825,339.304199 790.740112,359.727112 794.474243,381.857178 
	C800.846558,419.621918 796.527466,455.735352 781.007019,491.015045 
	C766.524353,523.935852 744.098267,550.041687 717.102356,572.946899 
	C681.819702,602.883057 640.843201,621.295898 596.494202,632.841064 
	C562.937134,641.576843 528.734863,644.692139 494.130524,643.174988 
	C465.438141,641.917053 437.296356,637.477356 410.227844,627.458252 
	C407.952850,626.616272 405.942078,626.230225 403.596771,627.551086 
	C377.319885,642.349976 349.266541,653.684998 322.801392,668.942200 
M605.828979,334.500000 
	C605.839600,302.718475 605.471436,270.950958 603.895264,239.194000 
	C603.624695,233.743057 601.690369,231.774796 596.963074,230.269440 
	C560.244507,218.576599 522.756165,213.993225 484.314484,217.265289 
	C461.680511,219.191849 439.727539,224.139206 418.252899,231.427109 
	C415.302429,232.428391 413.999268,234.216812 413.948944,237.307755 
	C413.864929,242.463242 413.485901,247.613388 413.365479,252.768906 
	C412.397217,294.228333 414.436127,335.714203 412.288605,377.160126 
	C412.078369,381.218445 413.475189,382.970459 417.403107,384.159576 
	C431.998718,388.578064 440.161072,399.204163 440.342194,413.258362 
	C440.540985,428.684296 432.314423,440.629272 417.782471,445.491760 
	C413.660004,446.871246 412.155396,449.043365 412.248138,453.464081 
	C412.522949,466.564331 413.979065,479.585327 412.571075,492.802673 
	C410.687225,510.487305 412.915588,528.314270 412.836578,546.095642 
	C412.760010,563.316223 412.945343,580.654419 414.164642,597.918640 
	C414.494751,602.592407 415.923737,604.460266 420.270538,605.857056 
	C443.993805,613.479980 468.171844,617.838867 493.135986,618.805969 
	C529.304321,620.207397 564.760376,615.908081 599.890686,607.774963 
	C603.177368,607.014099 604.741516,605.640503 604.733093,602.099487 
	C604.712463,593.454224 605.395569,584.797058 605.480957,576.179810 
	C605.893555,534.535522 605.715637,492.885620 605.840820,451.238007 
	C605.851196,447.782623 604.414062,446.282593 601.222412,445.283875 
	C586.554382,440.693878 578.077087,429.328308 577.697754,414.152771 
	C577.366821,400.916199 585.990417,388.877136 599.994263,384.326569 
	C605.432617,382.559357 606.804504,379.562500 606.629272,374.412903 
	C606.188049,361.447845 606.073608,348.471710 605.828979,334.500000 
M678.927795,320.412384 
	C686.190796,309.329529 692.227722,297.570831 701.306519,287.523895 
	C710.626709,277.209808 707.686584,260.560455 696.632568,251.749573 
	C683.753113,241.483612 670.550842,240.961609 656.688049,249.313583 
	C647.014282,255.141785 640.268494,263.826782 638.484863,276.433319 
	C636.900085,287.633850 638.718994,298.306366 639.522095,309.150726 
	C640.320007,319.924713 646.479919,325.370697 657.732910,326.708313 
	C660.695496,327.060486 663.711975,326.973846 666.704590,327.056885 
	C671.739136,327.196655 675.815247,325.447845 678.927795,320.412384 
M282.851349,336.509460 
	C287.767731,335.531921 290.613342,332.429230 292.087158,327.759247 
	C294.505157,320.097534 295.802979,312.261017 295.774200,304.239380 
	C295.760315,300.364563 294.804047,296.645203 292.479828,293.440002 
	C291.171204,291.635284 289.396606,289.884247 287.093750,290.599091 
	C284.219391,291.491302 280.119110,291.566772 279.437164,295.239655 
	C278.269623,301.528137 275.148712,307.594849 276.434570,314.204163 
	C277.358917,318.955383 276.088654,323.466064 275.254517,327.951721 
	C273.961853,334.903076 275.010834,336.591370 282.851349,336.509460 
M669.305176,419.789093 
	C670.214539,422.451447 670.837952,425.260590 672.109253,427.737091 
	C673.540710,430.525330 675.896912,431.616577 678.495544,428.914032 
	C688.357178,418.658142 685.934082,408.148773 677.288513,399.033295 
	C675.897888,397.567139 673.957214,396.613281 671.856506,397.517853 
	C669.758606,398.421204 669.219543,400.482666 669.183472,402.506256 
	C669.085938,407.975586 669.158630,413.447906 669.305176,419.789093 
M273.241730,232.165421 
	C274.170959,237.226700 273.701050,242.529785 275.802032,247.382523 
	C276.474945,248.936783 277.432037,250.460953 279.337585,250.534470 
	C281.393036,250.613785 282.190979,248.914597 282.658173,247.325897 
	C283.643036,243.976608 284.492920,240.581726 285.250336,237.172699 
	C286.752655,230.410828 285.842072,223.902725 282.723938,217.752045 
	C281.825012,215.978973 280.547272,214.177261 278.148773,214.527695 
	C276.039856,214.835831 275.316559,216.679794 274.713776,218.436035 
	C273.286713,222.594147 272.911346,226.889053 273.241730,232.165421 
M363.441833,414.119354 
	C360.692108,420.556976 363.640015,426.512207 365.547699,432.301056 
	C366.779053,436.037567 371.057526,435.760284 372.626495,431.971649 
	C375.627686,424.724365 375.402283,417.372589 371.829376,410.312653 
	C370.423828,407.535278 368.226440,407.542816 366.194946,409.667877 
	C365.185822,410.723541 364.581940,412.166656 363.441833,414.119354 
M646.275818,409.209290 
	C648.606750,410.154694 649.658386,408.707642 650.328735,406.890259 
	C651.135254,404.703827 650.748047,402.619659 648.985718,401.038116 
	C647.607117,399.800903 645.771362,398.841278 644.031433,399.618896 
	C642.014954,400.520142 640.109192,402.222778 642.656311,404.444794 
	C644.106323,405.709778 644.396606,407.597656 646.275818,409.209290 
z"/>
<path fill="#000000" opacity="1.000000" stroke="none" 
	d="
M265.342590,781.936829 
	C265.501404,793.949951 263.795013,792.820862 275.864075,792.559814 
	C285.481842,792.351929 295.075714,790.933350 304.708252,792.452209 
	C305.580048,792.589783 306.566498,792.000244 307.644836,791.709167 
	C307.644836,780.225708 307.641205,768.924438 307.648773,757.623108 
	C307.649902,755.958435 307.575134,754.279541 307.756317,752.631531 
	C308.498138,745.882935 309.816559,744.717041 316.596130,744.658691 
	C319.926971,744.630005 323.258362,744.630432 326.589233,744.655090 
	C332.621216,744.699768 334.101196,746.194336 334.200684,752.425293 
	C334.291046,758.086975 334.357849,763.749756 334.361511,769.412048 
	C334.379822,797.726074 334.366821,826.040100 334.384613,854.354126 
	C334.387115,858.341064 334.161163,862.331604 335.108368,866.285278 
	C335.852112,869.389832 334.376282,871.148254 331.222168,871.195740 
	C325.394897,871.283508 319.558319,871.403320 313.739075,871.171997 
	C309.060577,870.985962 307.763092,867.766785 307.765198,863.575989 
	C307.771729,850.585327 307.522491,837.591797 307.737946,824.605469 
	C307.814819,819.972107 306.457672,818.727173 301.672974,818.067261 
	C291.130127,816.613342 280.761414,818.988403 270.331940,818.275146 
	C266.250793,817.996033 265.223022,819.851135 265.266144,823.600098 
	C265.421295,837.089233 265.210205,850.583008 265.416870,864.070801 
	C265.485352,868.540588 263.987244,870.565491 259.405945,870.367126 
	C255.250549,870.187317 251.059296,870.098511 246.921783,870.435425 
	C242.043808,870.832764 239.872665,868.291931 238.974564,864.062622 
	C238.667435,862.616272 238.664825,861.087585 238.664093,859.596436 
	C238.646545,823.787354 238.641647,787.978210 238.652023,752.169128 
	C238.654022,745.259583 239.223175,744.702698 246.018143,744.664429 
	C250.015305,744.641907 254.019455,744.810364 258.008301,744.627441 
	C262.922424,744.401978 265.103851,746.836487 265.153290,751.471497 
	C265.259857,761.463379 265.284058,771.456116 265.342590,781.936829 
z"/>
<path fill="#000000" opacity="1.000000" stroke="none" 
	d="
M369.108154,806.291138 
	C375.522369,787.669312 381.889191,769.447693 387.984650,751.135864 
	C389.494293,746.600586 392.333069,744.972839 396.790070,744.596375 
	C402.454437,744.118042 408.087219,744.882385 413.718903,744.604126 
	C417.951355,744.394958 420.045746,746.354553 421.360016,750.179504 
	C431.953583,781.010132 442.669189,811.798828 453.305542,842.614807 
	C455.747375,849.689392 457.834778,856.891785 460.451813,863.898438 
	C462.062683,868.211243 460.077209,870.262085 456.443542,870.452515 
	C450.317810,870.773743 444.129913,870.579285 438.011261,870.076782 
	C435.030762,869.832031 433.149109,867.227173 432.018951,864.541565 
	C430.149445,860.099060 428.381073,855.603455 426.827057,851.042725 
	C425.935516,848.426147 424.465820,847.342773 421.706390,847.358643 
	C410.541504,847.422852 399.375153,847.412109 388.210968,847.285645 
	C385.418945,847.254028 383.960754,848.317932 383.135132,850.959290 
	C381.547150,856.039734 379.831512,861.084778 377.433929,865.867859 
	C375.975739,868.776917 373.977112,870.269348 370.461548,870.512268 
	C365.312805,870.868103 360.279388,871.510437 355.092224,870.448853 
	C349.739655,869.353333 349.255005,868.554260 350.604034,863.090759 
	C355.360046,843.829407 362.612122,825.393311 369.108154,806.291138 
M416.200623,814.102356 
	C412.799347,804.364868 410.159149,794.343079 406.075500,784.860535 
	C405.585327,784.860291 405.095154,784.860107 404.604980,784.859924 
	C400.450256,797.080627 396.295563,809.301331 391.901489,822.226074 
	C401.146790,822.226074 409.474731,822.226074 417.862396,822.226074 
	C418.436737,819.417175 416.945251,817.221130 416.200623,814.102356 
z"/>
<path fill="#000000" opacity="1.000000" stroke="none" 
	d="
M666.407104,861.309082 
	C664.174438,856.670532 665.090942,850.218018 660.895203,848.059753 
	C657.166870,846.141907 651.794983,847.343628 647.147400,847.305786 
	C639.986267,847.247437 632.815491,847.523315 625.665771,847.234741 
	C621.334656,847.059875 618.965698,848.339478 617.781799,852.769775 
	C616.504333,857.550476 615.082153,862.362305 612.523438,866.735291 
	C611.137451,869.104065 609.571655,870.510681 606.628418,870.410461 
	C601.471191,870.234802 596.299255,870.485779 591.142578,870.302979 
	C584.836365,870.079529 583.578125,868.493958 585.582275,862.546448 
	C593.069275,840.327515 600.746948,818.172791 608.357971,795.995667 
	C613.594421,780.737488 618.974182,765.526428 623.994080,750.197449 
	C625.405334,745.888000 627.927307,744.496155 632.108521,744.620605 
	C637.267029,744.774170 642.447571,744.892944 647.592834,744.589417 
	C652.954163,744.273132 656.155457,746.818970 657.904602,751.478760 
	C660.357910,758.014526 662.688416,764.600403 664.901184,771.221741 
	C674.959778,801.320557 684.967163,831.436401 694.972107,861.553101 
	C697.054077,867.820129 695.435669,870.108093 688.752991,870.355103 
	C685.925537,870.459717 683.059204,870.100891 680.265869,870.427124 
	C673.207886,871.251404 668.767151,868.279053 666.407104,861.309082 
M643.092407,786.323425 
	C642.409546,784.624573 642.565674,782.511108 640.598389,780.990784 
	C636.513550,793.851013 632.522217,806.341309 628.600220,818.853271 
	C628.067261,820.553528 628.087769,822.484924 630.516724,822.521301 
	C638.248352,822.637268 645.982849,822.564270 654.287170,822.564270 
	C651.144897,809.941650 647.056824,798.549011 643.092407,786.323425 
z"/>
<path fill="#000000" opacity="1.000000" stroke="none" 
	d="
M813.846191,854.685059 
	C813.809082,820.563904 813.775635,786.915710 813.814636,753.267456 
	C813.823364,745.762634 815.032227,744.666992 822.598694,744.659424 
	C835.758301,744.646240 848.923401,744.434265 862.076294,744.736267 
	C881.171814,745.174744 896.924500,757.846985 901.800110,776.216064 
	C906.593567,794.275513 898.942932,813.779053 883.384399,822.938782 
	C876.911621,826.749390 869.728699,828.099182 862.337219,828.321350 
	C856.511963,828.496521 850.671570,828.531189 844.849609,828.313904 
	C841.279419,828.180664 839.834961,829.613953 840.376770,832.995728 
	C841.570862,840.448486 840.850220,847.952942 841.127258,855.428894 
	C841.182739,856.926514 841.290955,858.426575 841.252747,859.922424 
	C841.037537,868.358704 839.169128,870.240479 830.892517,870.344482 
	C827.228333,870.390564 823.561096,870.281555 819.898987,870.381226 
	C816.177795,870.482422 814.290955,869.051453 814.571533,865.074646 
	C814.805420,861.759155 814.794556,858.414612 813.846191,854.685059 
M862.922058,770.446838 
	C857.023010,768.987976 851.110413,769.444580 845.148315,770.075012 
	C842.515564,770.353394 841.209351,771.168579 841.223999,773.953064 
	C841.271179,782.915955 841.256531,791.880005 841.163513,800.842468 
	C841.134583,803.625793 842.325867,804.712952 845.049744,804.663879 
	C850.014221,804.574280 854.944885,804.630920 859.902588,803.789795 
	C868.655396,802.304688 874.864990,796.761169 875.497131,788.298584 
	C876.089905,780.363281 873.597412,773.380554 862.922058,770.446838 
z"/>
<path fill="#000000" opacity="1.000000" stroke="none" 
	d="
M723.986694,870.406982 
	C710.023132,870.464294 710.633484,871.139832 710.601990,857.744812 
	C710.522522,823.929321 710.288086,790.114075 710.116638,756.298767 
	C710.113220,755.632263 710.117981,754.965759 710.124451,754.299316 
	C710.214233,745.040405 710.567383,744.688416 719.623291,744.684021 
	C731.786499,744.678162 743.949951,744.610413 756.112854,744.663635 
	C777.297058,744.756287 793.516907,757.294556 798.889832,777.639465 
	C804.938293,800.542358 784.345886,827.759644 760.481323,828.333984 
	C754.819397,828.470215 749.138550,828.603149 743.490540,828.295227 
	C738.853088,828.042358 736.939819,829.348328 737.182373,834.397034 
	C737.605591,843.208374 737.344910,852.053284 737.346008,860.884094 
	C737.347046,869.444031 736.512573,870.277771 727.975037,870.391907 
	C726.808838,870.407471 725.642334,870.402649 723.986694,870.406982 
M736.347961,790.288940 
	C736.685547,794.080566 737.067749,797.868958 737.340820,801.665222 
	C737.466858,803.417053 738.136169,804.563477 739.998535,804.590027 
	C748.460815,804.710632 756.868042,805.213379 764.618408,800.330933 
	C770.428101,796.671021 771.721130,791.283447 771.481445,785.356201 
	C771.215332,778.774475 768.318237,773.648438 761.564636,771.231079 
	C754.597046,768.737061 747.476868,769.261475 740.362915,769.674194 
	C737.776001,769.824280 736.240234,771.407471 736.318787,774.358765 
	C736.451538,779.346313 736.349670,784.340149 736.347961,790.288940 
z"/>
<path fill="#000000" opacity="1.000000" stroke="none" 
	d="
M136.697449,849.233154 
	C125.811905,834.574402 123.115875,818.394348 124.422852,800.849243 
	C125.340378,788.532104 128.724503,777.415833 135.517258,767.221863 
	C144.919678,753.111633 158.424210,745.523193 174.950195,743.869812 
	C187.954376,742.568726 200.963394,743.263916 212.560089,750.667908 
	C214.098755,751.650269 215.637344,752.668579 217.021042,753.851501 
	C223.024200,758.983215 223.354355,763.392578 218.135178,769.164917 
	C216.464890,771.012329 214.616837,772.710571 212.755692,774.371338 
	C209.227036,777.519897 205.911713,777.979004 201.655029,774.899292 
	C193.700455,769.143921 184.429962,768.058777 174.917603,769.515320 
	C167.818298,770.602356 162.092194,774.288635 158.333084,780.436096 
	C148.432175,796.627502 147.680389,813.439270 156.223297,830.317505 
	C162.989227,843.685059 176.461945,848.536072 192.031891,843.977173 
	C196.368973,842.707275 200.536758,841.015930 204.364914,838.627747 
	C206.858063,837.072388 209.002197,837.128479 211.132080,839.137451 
	C214.274445,842.101685 217.667145,844.824463 219.671387,848.811646 
	C222.734879,854.906006 221.751160,858.665710 216.026978,862.347595 
	C196.820435,874.701355 169.371674,874.258667 150.268280,861.452881 
	C145.231674,858.076599 140.846909,854.073792 136.697449,849.233154 
z"/>
<path fill="#000000" opacity="1.000000" stroke="none" 
	d="
M533.910400,744.655396 
	C542.748657,744.670288 542.900269,744.659729 543.485657,753.040833 
	C543.773621,757.164062 543.400452,761.335510 543.289978,765.484070 
	C543.204590,768.691284 540.805725,768.945312 538.418030,769.289917 
	C531.129578,770.341614 523.782654,770.200562 516.488098,769.865051 
	C512.078003,769.662231 511.256287,771.253418 511.275055,775.228149 
	C511.412811,804.359131 511.352325,833.491089 511.344330,862.622742 
	C511.342377,869.710815 510.886597,870.085449 503.686523,870.377991 
	C499.701538,870.539917 495.730927,871.143433 491.747162,871.226013 
	C486.103638,871.343018 484.675079,869.849121 484.668701,864.172241 
	C484.643219,841.532776 484.717194,818.893127 484.625214,796.254028 
	C484.595551,788.952515 484.056824,781.653931 483.974792,774.351440 
	C483.937500,771.033936 482.364624,770.034546 479.360016,769.981384 
	C472.709900,769.863831 466.063660,769.500244 459.413605,769.417664 
	C455.566010,769.369812 453.644867,767.975952 453.559326,763.823120 
	C453.460907,759.046753 452.440308,754.389343 453.403015,749.474304 
	C454.125183,745.787476 455.702484,744.857361 459.022430,744.859253 
	C474.667877,744.868286 490.313385,744.747620 505.958923,744.693604 
	C515.114136,744.661987 524.269409,744.668762 533.910400,744.655396 
z"/>
<path fill="#000000" opacity="1.000000" stroke="none" 
	d="
M511.525940,446.489594 
	C491.380157,447.086884 480.015564,435.347076 477.805603,416.752289 
	C475.374847,396.299530 489.219757,383.348755 505.978485,381.763550 
	C524.611450,380.001099 539.854614,393.095490 541.294495,411.329987 
	C542.726807,429.468567 529.770447,444.961304 511.525940,446.489594 
z"/>
</svg>