<svg version="1.1" id="Layer_1" xmlns="http://www.w3.org/2000/svg" xmlns:xlink="http://www.w3.org/1999/xlink" x="0px" y="0px"
	 width="100%" viewBox="0 0 1024 672" enable-background="new 0 0 1024 672" xml:space="preserve">
<path fill="#000000" opacity="1.000000" stroke="none" 
	d="
M365.731750,441.813354 
	C358.358246,445.763000 351.329071,449.573822 344.246033,453.281769 
	C341.456421,454.742096 338.659210,456.335907 335.350739,456.287140 
	C328.833405,456.191071 324.474030,450.192810 325.873383,442.704865 
	C329.842224,421.467590 333.881866,400.242035 338.147156,379.062897 
	C339.052338,374.568146 338.428741,371.322937 335.180603,367.807617 
	C318.241089,349.474640 306.233948,328.450439 301.490570,303.658691 
	C295.815735,273.998657 299.630463,245.720367 313.911896,219.009003 
	C315.683899,215.694733 316.436951,212.688995 315.925659,208.697464 
	C312.682343,183.380600 311.687317,157.937668 313.857513,132.475845 
	C314.787170,121.568825 315.791504,110.627647 318.560455,99.948265 
	C321.437622,88.851280 328.565979,85.271957 338.679352,90.625237 
	C355.952606,99.768394 371.550842,111.533974 387.512909,122.701736 
	C397.339111,129.576599 406.976807,136.729736 416.526459,143.985229 
	C419.126678,145.960770 421.164856,146.091644 424.212311,144.996704 
	C473.639252,127.238075 523.190369,126.386452 572.740845,144.491272 
	C575.673218,145.562698 577.613403,145.086197 579.989441,143.338364 
	C602.133423,127.049507 624.186157,110.624855 647.283691,95.685669 
	C650.767090,93.432640 654.402405,91.310402 658.201782,89.670364 
	C667.818420,85.519104 675.204163,89.632782 677.339905,100.069511 
	C679.342896,109.857681 680.199585,119.804810 681.166199,129.721436 
	C682.557312,143.992920 682.566345,158.332138 682.240479,172.648819 
	C681.971985,184.444183 681.456787,196.248245 679.497559,207.926865 
	C679.041321,210.646469 679.642883,213.087128 681.002441,215.568848 
	C708.268066,265.339111 701.328430,324.119049 663.508301,366.465729 
	C634.652466,398.775238 598.330688,417.499512 556.384583,426.288208 
	C534.246399,430.926697 511.839478,432.380371 489.339569,431.087433 
	C465.500427,429.717529 442.128021,425.343445 419.563995,417.304810 
	C416.103882,416.072113 413.285767,416.313019 410.105042,418.043396 
	C395.473877,426.002930 380.747009,433.786560 365.731750,441.813354 
M570.646973,245.421753 
	C570.632996,219.934708 570.434753,194.445465 570.741272,168.962265 
	C570.813110,162.984634 568.703918,160.322250 563.214294,158.277298 
	C544.262573,151.217682 524.588257,148.209457 504.588196,147.466293 
	C481.804077,146.619675 459.445160,149.861145 437.761200,157.063766 
	C426.148895,160.920944 426.336578,160.035599 426.539886,171.419846 
	C427.015625,198.057373 426.552551,224.712296 426.393311,251.359711 
	C426.376556,254.163193 427.295807,255.429352 430.179352,256.088196 
	C442.123322,258.817169 448.990387,266.558136 449.321594,277.192139 
	C449.699707,289.332825 443.719940,297.746033 431.658295,301.107330 
	C427.612366,302.234833 426.213989,304.315674 426.377502,308.182129 
	C426.602478,313.503632 426.831604,318.831390 426.812805,324.155609 
	C426.726898,348.462952 426.653442,372.771271 426.319672,397.075775 
	C426.262146,401.263031 427.940948,402.805298 431.641632,403.978546 
	C460.331238,413.074219 489.595490,416.797241 519.692200,414.889526 
	C535.362061,413.896301 550.707642,411.519104 565.928467,407.838165 
	C569.570984,406.957275 570.877625,405.214569 570.700623,401.600861 
	C570.480835,397.113739 570.638855,392.607941 570.637695,388.110229 
	C570.630737,361.790161 570.639954,335.470032 570.600525,309.150024 
	C570.595337,305.673218 570.863770,302.394470 565.961243,301.141632 
	C554.350342,298.174438 548.224304,289.861694 548.261292,278.254059 
	C548.296814,267.108826 554.567078,259.255798 566.327393,256.266052 
	C569.511414,255.456589 570.981201,254.164597 570.667236,250.886566 
	C570.524963,249.400955 570.643188,247.890381 570.646973,245.421753 
z"/>
<path fill="#000000" opacity="1.000000" stroke="none" 
	d="
M365.959259,567.774048 
	C365.969635,560.465332 365.883636,553.630859 366.028961,546.801208 
	C366.103790,543.285706 364.791870,541.412109 361.155334,541.475464 
	C354.161438,541.597168 347.167908,541.753418 340.173492,541.824463 
	C337.071747,541.855957 337.362122,544.031250 337.356934,546.026428 
	C337.337067,553.692322 337.219818,561.361023 337.395874,569.022827 
	C337.483215,572.825378 336.144623,574.347778 332.219788,574.462952 
	C319.872498,574.825500 319.880981,574.947571 319.874725,562.541077 
	C319.864746,542.709900 319.843719,522.878723 319.835175,503.047577 
	C319.831970,495.658752 320.064758,495.499939 327.301300,495.438873 
	C338.692047,495.342743 337.258575,495.200958 337.339539,505.363098 
	C337.380707,510.528870 337.449463,515.697876 337.313629,520.860413 
	C337.226257,524.180481 338.139923,525.901489 341.900452,525.375305 
	C348.213806,524.491882 354.542389,525.567688 360.867310,525.642151 
	C364.462860,525.684509 366.066681,524.439514 365.992950,520.738586 
	C365.860260,514.075684 366.015442,507.407501 365.942322,500.742706 
	C365.898468,496.745758 367.517548,494.770721 371.693817,495.376740 
	C372.678894,495.519714 373.687134,495.527161 374.685760,495.548737 
	C384.196899,495.753845 384.197815,495.750885 384.197937,505.123627 
	C384.198181,525.954712 384.205261,546.785828 384.192474,567.616943 
	C384.188538,574.034912 383.292694,574.867065 376.985901,574.561890 
	C375.488922,574.489441 373.971619,574.304504 372.494110,574.460083 
	C367.814026,574.953064 365.535095,573.059509 365.959259,567.774048 
z"/>
<path fill="#000000" opacity="1.000000" stroke="none" 
	d="
M551.948242,567.173950 
	C559.632812,545.132690 567.289673,523.500916 574.639343,501.765350 
	C576.222046,497.084869 578.501953,494.684174 583.601685,495.521606 
	C585.223877,495.787964 586.923889,495.582001 588.588318,495.589447 
	C597.817444,495.630768 597.848083,495.619720 600.826477,504.120422 
	C608.191956,525.141846 615.536377,546.170593 622.867310,567.204102 
	C624.953003,573.188477 624.144958,574.327087 617.918335,574.410950 
	C617.252686,574.419861 616.586609,574.418762 615.921021,574.405945 
	C605.871521,574.211914 606.538452,576.375122 602.881226,564.915710 
	C601.565247,560.792175 599.695251,558.864807 595.145813,559.170471 
	C589.512451,559.549011 583.831055,559.354919 578.175659,559.207458 
	C575.246277,559.131042 573.331360,560.009277 572.850891,563.087402 
	C572.825806,563.248108 572.732544,563.397583 572.675354,563.553833 
	C568.642273,574.568237 568.642334,574.568237 556.798035,574.456604 
	C550.851318,574.400574 550.200562,573.498901 551.948242,567.173950 
M589.513611,524.125244 
	C588.869934,522.559875 588.226257,520.994507 587.032715,518.092041 
	C584.220703,526.645386 581.879272,533.686768 579.605103,540.749817 
	C579.122498,542.248596 579.651733,543.554993 581.360046,543.598022 
	C585.904297,543.712463 590.483459,544.126953 595.359741,543.236755 
	C594.187256,536.529175 591.514771,530.810364 589.513611,524.125244 
z"/>
<path fill="#000000" opacity="1.000000" stroke="none" 
	d="
M417.145203,559.747437 
	C414.518616,563.315613 413.914673,567.344238 412.480164,571.041382 
	C411.560028,573.412842 410.205902,574.515442 407.676117,574.471802 
	C404.850708,574.422974 402.022034,574.620605 399.194489,574.629578 
	C394.318390,574.645020 392.843170,572.772705 394.457642,568.023621 
	C399.649628,552.750977 404.997192,537.531128 410.285187,522.291138 
	C412.848145,514.904907 415.465179,507.536835 417.951630,500.124969 
	C419.060852,496.818451 421.074127,495.249359 424.643494,495.534241 
	C427.125122,495.732300 429.634857,495.585815 432.131989,495.580231 
	C440.435089,495.561646 440.426453,495.562408 443.074951,503.165253 
	C450.403656,524.203247 457.746552,545.236328 465.070007,566.276123 
	C467.475677,573.187500 466.469482,574.552368 459.146454,574.433350 
	C458.480621,574.422546 457.814789,574.414368 457.148895,574.409790 
	C448.935486,574.353516 448.557312,574.466980 446.154022,566.438599 
	C444.498810,560.909180 441.916992,558.516174 435.934998,559.141968 
	C429.839783,559.779541 423.643311,559.449707 417.145203,559.747437 
M433.731934,528.594849 
	C432.465912,525.494507 432.077667,521.997620 429.429565,518.417603 
	C426.589569,527.191406 424.037109,535.076965 421.340881,543.406677 
	C427.456207,543.831116 432.513092,543.956604 438.048523,543.373962 
	C437.503540,538.173340 435.323975,533.867004 433.731934,528.594849 
z"/>
<path fill="#000000" opacity="1.000000" stroke="none" 
	d="
M660.970703,549.336304 
	C648.641418,549.474243 650.206604,547.986755 650.106506,559.687073 
	C650.080872,562.682373 650.105957,565.678162 650.103149,568.673706 
	C650.102661,569.172729 650.092224,569.672485 650.062988,570.170593 
	C649.736084,575.739563 645.449951,574.861511 642.287964,574.298157 
	C638.576843,573.636902 631.951172,577.678040 631.841736,569.940674 
	C631.514526,546.812805 631.729614,523.677429 631.710693,500.544952 
	C631.707886,497.079163 633.087402,495.406494 636.816467,495.484253 
	C645.799622,495.671478 654.789001,495.532196 663.774719,495.631866 
	C679.722961,495.808777 690.279175,506.512787 690.306580,522.437683 
	C690.334595,538.661011 680.238647,548.957520 663.948608,549.316162 
	C663.116821,549.334473 662.284546,549.329041 660.970703,549.336304 
M650.261230,513.135437 
	C650.198303,518.625549 650.127258,524.115540 650.076477,529.605774 
	C650.056580,531.762390 650.388062,533.712036 653.192505,533.716614 
	C657.011108,533.722839 660.856079,534.176636 664.627136,533.214966 
	C668.977112,532.105530 671.513245,529.465759 671.839294,524.819092 
	C672.185181,519.889709 671.706299,515.235901 666.572083,512.969360 
	C661.431702,510.700134 656.029907,510.431824 650.261230,513.135437 
z"/>
<path fill="#000000" opacity="1.000000" stroke="none" 
	d="
M698.921875,566.778870 
	C698.925232,545.347229 698.916870,524.385437 698.938477,503.423676 
	C698.946289,495.881775 699.272522,495.593536 706.850220,495.607391 
	C715.334656,495.622894 723.821960,495.502075 732.302795,495.683197 
	C743.362244,495.919373 752.530396,502.599060 755.895264,512.570557 
	C759.763000,524.032288 756.908752,536.428833 748.633118,543.174438 
	C742.371338,548.278503 734.914429,549.412537 727.065979,549.376160 
	C715.928101,549.324463 717.203857,548.136414 717.146423,559.140930 
	C717.127319,562.800598 717.160034,566.460815 717.109436,570.119995 
	C717.070862,572.916016 715.708496,574.436096 712.789062,574.395874 
	C710.627136,574.366028 708.463867,574.398010 706.301697,574.432983 
	C699.315369,574.545898 699.065002,574.307678 698.921875,566.778870 
M717.371033,513.173096 
	C717.294434,516.161377 717.157288,519.149475 717.151550,522.137878 
	C717.126648,535.139832 717.140564,535.139771 730.230469,533.671692 
	C730.395630,533.653259 730.563477,533.655518 730.727600,533.631531 
	C735.772095,532.892639 738.799011,529.670349 739.542419,524.250549 
	C740.217041,519.331787 737.894348,514.149841 733.689026,512.636169 
	C728.488159,510.764160 723.074036,510.388641 717.371033,513.173096 
z"/>
<path fill="#000000" opacity="1.000000" stroke="none" 
	d="
M253.281769,560.570740 
	C244.504868,545.518311 244.015350,530.056885 250.600983,514.748779 
	C260.356628,492.072021 289.533936,489.178528 305.505646,500.246765 
	C310.067261,503.407928 310.379120,505.663086 307.020172,510.110657 
	C305.817841,511.702576 304.441010,513.161499 303.199829,514.725586 
	C301.555145,516.798157 299.866852,516.749451 297.544464,515.570618 
	C278.429504,505.868378 263.471100,515.557007 264.321594,536.996643 
	C265.081757,556.159851 280.723419,564.700195 297.071899,554.689087 
	C300.206665,552.769470 301.975800,553.221619 304.209167,555.800354 
	C311.400085,564.103271 310.743011,568.237549 300.564758,572.370056 
	C285.169373,578.620667 264.419769,576.935913 253.281769,560.570740 
z"/>
<path fill="#000000" opacity="1.000000" stroke="none" 
	d="
M468.493408,495.587463 
	C484.593964,495.580566 500.246460,495.717468 515.893005,495.472504 
	C520.320923,495.403198 521.969421,497.188873 522.002258,501.238861 
	C522.011658,502.404327 522.059326,503.569885 522.047607,504.735016 
	C521.980774,511.346100 521.157776,512.158447 514.522766,512.205627 
	C500.294617,512.306763 500.291718,512.306763 500.284454,526.682373 
	C500.277405,540.670166 500.171631,554.659241 500.336731,568.645081 
	C500.387756,572.967041 498.811554,574.570679 494.482544,574.471497 
	C481.489563,574.173584 482.693573,576.517151 482.667847,562.902283 
	C482.640167,548.248413 482.668243,533.594421 482.658539,518.940491 
	C482.654114,512.216003 482.639557,512.215515 475.696869,512.184143 
	C472.200165,512.168335 468.703125,512.178406 465.206818,512.133240 
	C462.233398,512.094788 460.490570,510.813141 460.656677,507.569580 
	C460.741699,505.908997 460.654816,504.239990 460.660522,502.574860 
	C460.684906,495.480621 460.689331,495.478333 468.493408,495.587463 
z"/>
<path fill="#000000" opacity="1.000000" stroke="none" 
	d="
M475.981262,280.640625 
	C475.659119,267.458374 483.436554,257.915527 495.611542,256.025024 
	C506.368164,254.354767 517.177002,261.371948 520.561890,272.223053 
	C524.387085,284.485535 516.874207,297.790466 504.333618,300.962646 
	C491.354218,304.245819 478.785400,296.115753 476.542084,282.994568 
	C476.430573,282.342163 476.229584,281.705078 475.981262,280.640625 
z"/>
</svg>